<?xml version="1.0" encoding="utf-8"?>
<!-- Generator: Adobe Illustrator 16.0.3, SVG Export Plug-In . SVG Version: 6.00 Build 0)  -->
<!DOCTYPE svg PUBLIC "-//W3C//DTD SVG 1.1//EN" "http://www.w3.org/Graphics/SVG/1.1/DTD/svg11.dtd">
<svg version="1.1" id="Layer_1" xmlns="http://www.w3.org/2000/svg" xmlns:xlink="http://www.w3.org/1999/xlink" x="0px" y="0px"
	 width="450.972px" height="201.441px" viewBox="0 0 450.972 201.441" enable-background="new 0 0 450.972 201.441"
	 xml:space="preserve">
<g>
	<g>
		<linearGradient id="SVGID_1_" gradientUnits="userSpaceOnUse" x1="0" y1="92.7246" x2="185.6816" y2="92.7246">
			<stop  offset="0" style="stop-color:#F173AC"/>
			<stop  offset="0.5074" style="stop-color:#F9C9DE"/>
			<stop  offset="1" style="stop-color:#F173AC"/>
		</linearGradient>
		<path fill="url(#SVGID_1_)" d="M183.66,120.322c-6.328-1.934-15.264-3.721-26.807-5.361c5.332-24.609,10.781-51.592,16.348-80.947
			c1.992-9.901,2.988-16.348,2.988-19.336v-1.494c0-3.397-0.938-6.386-2.813-8.965C170.857,1.406,168.66,0,166.785,0h-0.352
			c-2.227,0-4.277,2.052-6.152,6.152c-8.906,20.333-19.072,40.664-30.498,60.996c-8.613,15.703-17.959,30.88-28.037,45.527
			c-0.159,0-0.472,0.014-0.931,0.04l-0.036-0.04c0,0-11.577,0.344-24.282,1.638c0.885-1.373,1.801-2.855,2.75-4.45
			c3.925-7.44,5.889-13.652,5.889-18.633v-0.439c0-4.219-1.553-7.88-4.658-10.986c-4.219-3.809-8.321-5.713-12.305-5.713h-1.23
			c-3.926,0-8.584,1.992-13.975,5.977c-3.047,2.285-6.504,5.713-10.371,10.283c-3.458,4.337-6.24,8.292-8.35,11.865
			c-3.202,5.197-6.147,10.921-8.847,17.15l-7.517-1.685c0,0-1.197-0.354-1.492,0.245c-0.243,0.494,0.378,2.136,7.335,5.438
			c-0.285,0.708-0.563,1.429-0.843,2.149l-14.661-0.392c0,0-5.417-0.683-5.249,0.587c0.144,1.078,5.423,3.473,18.201,4.719
			c-0.317,0.988-0.618,1.958-0.906,2.914c-6.283,1.766-14.245,3.956-16.916,4.484l-2.571,0.619c0,0-1.072,0.411-0.704,1.216
			c0.368,0.804,2.997,1.982,14.986-0.143c1.337-0.237,2.546-0.455,3.651-0.658c-0.675,2.603-1.228,5.065-1.66,7.395
			c-1.949,1.441-3.787,2.737-5.205,3.615c0,0-4.085,2.162-3.698,3.317c0.27,0.807,3.443,0.117,8.105-1.816
			c-0.25,2.152-0.38,4.169-0.38,6.04v2.549c0,3.222,0.556,6.649,1.67,10.283c1.347,4.336,3.955,7.939,7.822,10.811
			c4.863,2.93,9.169,4.395,12.92,4.395c2.87,0,5.713-0.615,8.525-1.846c2.578-0.997,6.064-3.458,10.459-7.383
			c5.273-5.216,9.433-9.551,12.48-13.008c10.604-12.422,21.094-25.722,31.464-39.902c7.383-0.585,16.143-0.879,26.279-0.879h8.613
			c-1.641,7.207-3.721,17.081-6.24,29.619c-2.344,11.074-3.516,17.49-3.516,19.248c0,2.167,1.348,4.482,4.043,6.943
			c4.219,3.397,7.471,5.098,9.756,5.098c1.465,0,2.49-1.143,3.076-3.428c4.688-22.266,8.672-41.366,11.953-57.305h4.043
			c2.813,0,8.203,0.059,16.172,0.176h1.143c5.449,0,8.496-0.352,9.141-1.055v-0.264C185.623,121.231,184.949,120.85,183.66,120.322z
			 M52.967,105.381c1.758-3.105,4.687-7.089,8.789-11.953c3.046-3.105,5.39-5.155,7.031-6.152c2.813-1.934,5.625-3.076,8.438-3.428
			c0.527,2.52,0.791,4.658,0.791,6.416c0,5.392-1.377,11.66-4.131,18.809c-0.695,1.824-1.667,3.778-2.909,5.86
			c-2.324,0.286-4.632,0.607-6.87,0.967c-1.555,0.111-3.127,0.3-4.611,0.611c-1.375,0.289-2.963,0.748-4.709,1.264
			c-1.292,0.331-2.512,0.68-3.625,1.054c-1.891,0.532-3.916,1.047-6.042,1.463C47.581,114.761,50.193,109.778,52.967,105.381z
			 M92.694,124.98c0,0.059-4.454,5.596-13.359,16.611c-2.403,3.047-7.881,8.584-16.436,16.611
			c-6.152,5.507-10.547,9.11-13.184,10.811c-7.383,4.628-12.071,6.943-14.063,6.943h-0.176c-0.352,0-0.674-0.146-0.967-0.439
			c-0.762-2.344-1.143-5.508-1.143-9.492c0-7.229,1.493-15.853,4.428-25.822c2.801-1.243,5.169-1.87,6.685-1.229
			c0,0,1.464,1.254,0.228,3.774c-1.236,2.521-5.355,8.306-5.312,10.971c0.045,2.663,0.291,3.448,1.459,3.139
			c1.167-0.309,2.043-4.067,5.353-7.361c3.31-3.293,12.48-10.614,12.48-10.614s6.768-4.254,7.9-8.369l7.171-3.306
			c0.091-0.022,0.182-0.045,0.273-0.067c0.944-0.215,4.495-1.008,7.824-1.56c5.166-0.786,11.54-1.566,11.54-1.566L92.694,124.98z
			 M151.58,49.307c-4.102,19.454-8.555,40.693-13.359,63.721c-7.559-0.527-14.473-0.791-20.742-0.791h-6.152
			c-0.469,0-1.172,0.03-2.109,0.088v-0.088c5.684-8.203,12.744-18.603,21.182-31.201c10.43-15.878,17.49-26.513,21.182-31.904
			V49.307z"/>
		<linearGradient id="SVGID_2_" gradientUnits="userSpaceOnUse" x1="199.4365" y1="162.4219" x2="199.4365" y2="94.6582">
			<stop  offset="0" style="stop-color:#F173AC"/>
			<stop  offset="0.5074" style="stop-color:#F9C9DE"/>
			<stop  offset="1" style="stop-color:#F173AC"/>
		</linearGradient>
		<path fill="url(#SVGID_2_)" d="M177.332,94.658c1.172,0,2.607,0.527,4.307,1.582c3.398,2.637,5.508,5.392,6.328,8.262
			c0.176,0.821,0.264,1.729,0.264,2.725v0.615c0,2.755-0.586,6.504-1.758,11.25c0,0.294,0,0.615,0,0.967
			c0,0.118,0.029,0.176,0.088,0.176c1.348-1.288,2.871-3.018,4.57-5.186c5.098-5.566,8.76-8.35,10.986-8.35h0.615
			c1.816,0,4.16,1.113,7.031,3.34c2.285,2.168,3.633,3.838,4.043,5.01c0.703,1.349,1.055,3.076,1.055,5.186
			c0,5.156-2.285,14.678-6.855,28.564c-0.762,2.52-1.143,3.985-1.143,4.395l0.088,0.088h0.088c1.172-0.645,2.871-2.079,5.098-4.307
			c4.453-4.746,8.32-9.404,11.602-13.975c2.93-4.16,5.977-8.027,9.141-11.602c1.23-1.348,2.08-2.021,2.549-2.021
			c0.82,0.47,1.23,0.909,1.23,1.318v0.352c0,0.762-3.574,5.947-10.723,15.557c-4.57,6.211-9.492,12.129-14.766,17.754
			c-3.516,3.34-5.684,5.128-6.504,5.361c-0.82,0.47-1.641,0.703-2.461,0.703h-0.088c-1.934,0-4.277-1.26-7.031-3.779
			c-2.52-2.988-3.779-6.21-3.779-9.668v-0.264c0-4.276,2.139-12.568,6.416-24.873c1.113-3.457,1.67-5.479,1.67-6.064
			c-0.996,0.176-3.867,2.843-8.613,7.998c-4.922,5.801-7.793,9.874-8.613,12.217c-0.879,2.109-2.256,6.738-4.131,13.887
			c-1.523,5.098-2.871,8.116-4.043,9.053c-0.82,0.586-1.377,0.879-1.67,0.879h-0.703c-2.168-0.469-4.395-1.903-6.68-4.307
			c-1.814-2.343-2.725-4.922-2.725-7.734c0-1.64,1.729-9.434,5.186-23.379c3.516-14.12,6.035-23.73,7.559-28.828
			C175.662,95.625,176.453,94.658,177.332,94.658z"/>
		<linearGradient id="SVGID_3_" gradientUnits="userSpaceOnUse" x1="245.4473" y1="162.9492" x2="245.4473" y2="76.1133">
			<stop  offset="0" style="stop-color:#F173AC"/>
			<stop  offset="0.5074" style="stop-color:#F9C9DE"/>
			<stop  offset="1" style="stop-color:#F173AC"/>
		</linearGradient>
		<path fill="url(#SVGID_3_)" d="M235.691,103.184c1.758,0,4.101,1.349,7.031,4.043c1.64,1.641,2.461,3.574,2.461,5.801
			c0,2.403-1.729,9.316-5.186,20.742c-1.876,6.328-2.813,10.078-2.813,11.25c-0.821,4.513-1.23,7.646-1.23,9.404
			c0.058,0,0.088,0.03,0.088,0.088c0.937-0.409,3.633-3.046,8.086-7.91c5.391-6.034,9.082-10.547,11.074-13.535
			c2.754-3.691,5.918-7.5,9.492-11.426c0.879-0.761,1.464-1.143,1.758-1.143h0.088c1.288,0.294,1.934,0.938,1.934,1.934
			c0,0.234-1.437,2.315-4.307,6.24c-10.138,14.238-17.257,23.906-21.357,29.004c-2.931,3.516-5.449,5.273-7.559,5.273
			c-2.695,0-6.123-2.402-10.283-7.207c-1.699-2.343-2.549-5.654-2.549-9.932c0-8.086,3.018-20.596,9.053-37.529
			C232.761,104.884,234.167,103.184,235.691,103.184z M242.547,76.113h0.439c1.934,0,4.131,1.261,6.592,3.779
			c2.227,2.344,3.34,4.834,3.34,7.471c0,2.695-0.821,6.358-2.461,10.986c-0.586,1.113-1.377,1.67-2.373,1.67
			c-1.641,0-3.867-0.791-6.68-2.373c-1.289-0.82-2.667-1.903-4.131-3.252c-1.173-1.288-1.758-2.637-1.758-4.043
			c0-1.991,1.288-6.006,3.867-12.041C240.144,76.847,241.198,76.113,242.547,76.113z"/>
		<linearGradient id="SVGID_4_" gradientUnits="userSpaceOnUse" x1="301.3018" y1="164.7949" x2="301.3018" y2="101.4258">
			<stop  offset="0" style="stop-color:#F173AC"/>
			<stop  offset="0.5074" style="stop-color:#F9C9DE"/>
			<stop  offset="1" style="stop-color:#F173AC"/>
		</linearGradient>
		<path fill="url(#SVGID_4_)" d="M265.574,101.426c2.167,0,4.834,1.992,7.998,5.977c1.523,2.052,2.285,4.219,2.285,6.504
			c0,1.055-0.498,3.604-1.494,7.646l-0.088,0.791c0.058,0.118,0.117,0.176,0.176,0.176c1.172-1.055,2.637-2.725,4.395-5.01
			c5.155-5.683,8.935-8.525,11.338-8.525h0.088c2.519,0,5.419,1.524,8.701,4.57c2.519,2.579,3.779,5.537,3.779,8.877v0.264
			c0,1.173-0.088,2.373-0.264,3.604c6.504-7.91,11.191-11.865,14.063-11.865h0.088c2.519,0,5.391,1.494,8.613,4.482
			c2.754,2.755,4.131,6.035,4.131,9.844v0.791c0,3.164-1.846,10.226-5.537,21.182c-0.586,1.992-1.025,3.634-1.318,4.922h0.088
			c0.879-0.233,2.9-1.934,6.064-5.098c0.176-0.233,1.26-1.436,3.252-3.604c3.691-4.395,6.973-8.613,9.844-12.656
			c2.285-3.222,4.951-6.474,7.998-9.756c0.645-0.527,1.084-0.791,1.318-0.791h0.264c0.703,0.47,1.055,0.909,1.055,1.318v0.264
			c0,0.703-2.344,4.249-7.031,10.635c-5.273,7.266-10.518,13.917-15.732,19.951c-5.392,5.919-9.287,8.877-11.689,8.877
			c-1.816,0-4.131-1.23-6.943-3.691c-2.579-2.93-3.867-6.122-3.867-9.58v-0.439c0-3.749,1.758-10.635,5.273-20.654
			c0.879-2.813,1.318-4.395,1.318-4.746c-0.059,0-0.088-0.029-0.088-0.088c-1.055,0.294-3.81,2.813-8.262,7.559
			c-0.234,0.294-2.315,2.725-6.24,7.295c-2.109,6.798-3.634,11.896-4.57,15.293c0,1.113-0.558,2.9-1.67,5.361
			c-1.289,2.167-2.667,3.252-4.131,3.252h-0.264c-1.113,0-2.871-1.025-5.273-3.076c-2.755-2.988-4.131-6.386-4.131-10.195
			c0-3.984,1.963-11.719,5.889-23.203c1.582-4.57,2.373-7.148,2.373-7.734h-0.088c-0.762,0-3.516,2.491-8.262,7.471
			c-5.216,6.211-8.174,10.371-8.877,12.48c-0.938,2.228-2.344,6.855-4.219,13.887c-1.758,5.859-3.106,8.935-4.043,9.229
			c-0.762,0.645-1.465,0.967-2.109,0.967c-1.641-0.234-3.516-1.201-5.625-2.9c-2.637-2.637-3.955-5.595-3.955-8.877v-0.264
			c0-1.875,1.729-9.756,5.186-23.643c3.105-12.246,5.507-20.42,7.207-24.521C263.406,102.275,264.401,101.426,265.574,101.426z"/>
		<linearGradient id="SVGID_5_" gradientUnits="userSpaceOnUse" x1="379.1289" y1="163.125" x2="379.1289" y2="101.4258">
			<stop  offset="0" style="stop-color:#F173AC"/>
			<stop  offset="0.5074" style="stop-color:#F9C9DE"/>
			<stop  offset="1" style="stop-color:#F173AC"/>
		</linearGradient>
		<path fill="url(#SVGID_5_)" d="M373.68,101.426h0.967c5.742,0,10.84,2.959,15.293,8.877c1.23,1.934,1.846,3.428,1.846,4.482
			c0,1.349-1.055,2.52-3.164,3.516c-0.234,0-0.41,0-0.527,0c-0.352,0-0.733-0.439-1.143-1.318c-0.527-0.585-1.318-0.879-2.373-0.879
			c-3.516,0-7.734,2.08-12.656,6.24c-2.461,2.285-4.219,4.161-5.273,5.625c-2.403,3.164-4.307,6.095-5.713,8.789
			c-1.992,3.634-3.867,8.028-5.625,13.184c-0.821,2.579-1.23,4.161-1.23,4.746v0.264h0.264c1.172-0.176,4.248-2.549,9.229-7.119
			c3.573-3.691,6.416-7.031,8.525-10.02c2.285-3.457,3.896-6.357,4.834-8.701c1.64-4.922,3.164-8.086,4.57-9.492
			c0.879-0.703,1.758-1.055,2.637-1.055h0.703c1.934,0,4.276,1.261,7.031,3.779c2.285,2.461,3.428,4.688,3.428,6.68
			c0,2.931-2.373,9.463-7.119,19.6c-1.934,3.81-2.959,6.095-3.076,6.855h0.176c0.703,0,3.604-2.754,8.701-8.262
			c4.804-5.507,9.022-10.752,12.656-15.732c2.343-3.573,4.688-6.797,7.031-9.668c1.406-1.758,2.461-2.637,3.164-2.637h0.352
			c0.82,0.118,1.23,0.47,1.23,1.055v0.439c0,2.461-6.65,12.159-19.951,29.092c-6.68,8.32-11.748,12.48-15.205,12.48
			c-1.992,0-4.307-1.172-6.943-3.516c-2.285-2.343-3.428-5.243-3.428-8.701c0-0.761,0.088-1.875,0.264-3.34
			c-2.109,2.813-4.513,5.684-7.207,8.613c-3.81,3.81-6.183,5.947-7.119,6.416c-1.524,0.937-3.164,1.406-4.922,1.406
			c-3.164,0-6.035-1.64-8.613-4.922c-3.634-4.101-5.449-8.906-5.449-14.414c0-6.562,2.578-14.15,7.734-22.764
			c1.582-2.694,3.867-5.625,6.855-8.789C361.111,105.029,367.527,101.426,373.68,101.426z"/>
		<linearGradient id="SVGID_6_" gradientUnits="userSpaceOnUse" x1="162.2925" y1="121.6592" x2="188.1987" y2="121.6592">
			<stop  offset="0" style="stop-color:#F173AC"/>
			<stop  offset="0.5074" style="stop-color:#F9C9DE"/>
			<stop  offset="1" style="stop-color:#F173AC"/>
		</linearGradient>
		<path fill="url(#SVGID_6_)" d="M162.294,148.876c0,0,17.16-55.88,25.902-42.629c0,0,0.298-4.229-5.781-9.383
			s-7.05-0.689-7.456,0.694S162.137,145.563,162.294,148.876z"/>
		<linearGradient id="SVGID_7_" gradientUnits="userSpaceOnUse" x1="223.3022" y1="119.0664" x2="244.8984" y2="119.0664">
			<stop  offset="0" style="stop-color:#F173AC"/>
			<stop  offset="0.5074" style="stop-color:#F9C9DE"/>
			<stop  offset="1" style="stop-color:#F173AC"/>
		</linearGradient>
		<path fill="url(#SVGID_7_)" d="M223.305,136.809c0,0,12.851-39.202,21.593-25.951c0,0,0.229-1.958-5.851-7.112
			s-7.05-0.689-7.456,0.694S223.147,133.496,223.305,136.809z"/>
		<linearGradient id="SVGID_8_" gradientUnits="userSpaceOnUse" x1="250.3853" y1="124.7329" x2="275.8203" y2="124.7329">
			<stop  offset="0" style="stop-color:#F173AC"/>
			<stop  offset="0.5074" style="stop-color:#F9C9DE"/>
			<stop  offset="1" style="stop-color:#F173AC"/>
		</linearGradient>
		<path fill="url(#SVGID_8_)" d="M250.387,151.023c0,0,16.691-51.238,25.434-37.987c0,0-0.425-7.018-6.504-12.172
			s-7.05-0.689-7.456,0.694S250.229,147.711,250.387,151.023z"/>
		<linearGradient id="SVGID_9_" gradientUnits="userSpaceOnUse" x1="235.4077" y1="88.5962" x2="246.7051" y2="88.5962">
			<stop  offset="0" style="stop-color:#F173AC"/>
			<stop  offset="0.5074" style="stop-color:#F9C9DE"/>
			<stop  offset="1" style="stop-color:#F173AC"/>
		</linearGradient>
		<path fill="url(#SVGID_9_)" d="M240.025,77.33c0,0-0.576,21.122,6.68,22.532c0,0-8.52-2.268-10.757-7.46
			S239.084,78.128,240.025,77.33z"/>
		<linearGradient id="SVGID_10_" gradientUnits="userSpaceOnUse" x1="270.3027" y1="128.5586" x2="288.1279" y2="128.5586">
			<stop  offset="0" style="stop-color:#F173AC"/>
			<stop  offset="0.5074" style="stop-color:#F9C9DE"/>
			<stop  offset="1" style="stop-color:#F173AC"/>
		</linearGradient>
		<path fill="url(#SVGID_10_)" d="M270.303,139.678c0,0,7.409-16.155,17.825-22.238l-0.757,2.707
			C287.371,120.146,284.805,119.531,270.303,139.678z"/>
		<linearGradient id="SVGID_11_" gradientUnits="userSpaceOnUse" x1="299.1484" y1="132.1108" x2="314.2109" y2="132.1108">
			<stop  offset="0" style="stop-color:#F173AC"/>
			<stop  offset="0.5074" style="stop-color:#F9C9DE"/>
			<stop  offset="1" style="stop-color:#F173AC"/>
		</linearGradient>
		<path fill="url(#SVGID_11_)" d="M313.738,125.684c0,0-5.652,4.192-14.59,14.766c0,0,12.146-15.094,15.063-16.677L313.738,125.684z
			"/>
		<g>
			<linearGradient id="SVGID_12_" gradientUnits="userSpaceOnUse" x1="138.1143" y1="74.0806" x2="161.5449" y2="74.0806">
				<stop  offset="0" style="stop-color:#F173AC"/>
				<stop  offset="0.5074" style="stop-color:#F9C9DE"/>
				<stop  offset="1" style="stop-color:#F173AC"/>
			</linearGradient>
			<polygon fill="url(#SVGID_12_)" points="140.457,113.222 161.545,34.939 151.58,49.307 138.114,113.045 			"/>
			<linearGradient id="SVGID_13_" gradientUnits="userSpaceOnUse" x1="129.4238" y1="138.3105" x2="137.9697" y2="138.3105">
				<stop  offset="0" style="stop-color:#F173AC"/>
				<stop  offset="0.5074" style="stop-color:#F9C9DE"/>
				<stop  offset="1" style="stop-color:#F173AC"/>
			</linearGradient>
			<polygon fill="url(#SVGID_13_)" points="136.128,122.443 129.424,154.178 137.97,122.455 			"/>
		</g>
		<g>
			<linearGradient id="SVGID_14_" gradientUnits="userSpaceOnUse" x1="101.7461" y1="102.7002" x2="121.2324" y2="102.7002">
				<stop  offset="0" style="stop-color:#000000;stop-opacity:0.3"/>
				<stop  offset="0.601" style="stop-color:#000000;stop-opacity:0"/>
			</linearGradient>
			<path fill="url(#SVGID_14_)" d="M101.746,112.676c0,0,3.977-0.439,7.471-0.439l12.016-17.578l-6.416-1.934
				C114.816,92.725,104.344,109.204,101.746,112.676z"/>
			<linearGradient id="SVGID_15_" gradientUnits="userSpaceOnUse" x1="140.2368" y1="114.7188" x2="158.7625" y2="92.6407">
				<stop  offset="0" style="stop-color:#000000;stop-opacity:0.3"/>
				<stop  offset="0.601" style="stop-color:#000000;stop-opacity:0"/>
			</linearGradient>
			<path fill="url(#SVGID_15_)" d="M138.221,113.027c0,0,11.854,0.904,18.633,1.934l4.313-20.303l-18.508-2.87L138.221,113.027z"/>
			<linearGradient id="SVGID_16_" gradientUnits="userSpaceOnUse" x1="143.8032" y1="122.4316" x2="143.8032" y2="142.2529">
				<stop  offset="0" style="stop-color:#000000;stop-opacity:0.3"/>
				<stop  offset="0.601" style="stop-color:#000000;stop-opacity:0"/>
			</linearGradient>
			<polygon fill="url(#SVGID_16_)" points="136.111,122.432 155.184,122.607 151.116,142.253 132.423,139.54 			"/>
			<linearGradient id="SVGID_17_" gradientUnits="userSpaceOnUse" x1="93.5571" y1="123.3105" x2="93.5571" y2="136.3184">
				<stop  offset="0" style="stop-color:#000000;stop-opacity:0.3"/>
				<stop  offset="0.601" style="stop-color:#000000;stop-opacity:0"/>
			</linearGradient>
			<polygon fill="url(#SVGID_17_)" points="93.396,124.014 101.219,123.311 91.483,136.318 85.896,133.47 			"/>
			<linearGradient id="SVGID_18_" gradientUnits="userSpaceOnUse" x1="169.7451" y1="119.4824" x2="164.1279" y2="119.4824">
				<stop  offset="0" style="stop-color:#000000;stop-opacity:0.3"/>
				<stop  offset="0.601" style="stop-color:#000000;stop-opacity:0"/>
			</linearGradient>
			<polygon fill="url(#SVGID_18_)" points="169.745,117.055 168.325,122.687 164.128,122.687 165.377,116.278 			"/>
			<linearGradient id="SVGID_19_" gradientUnits="userSpaceOnUse" x1="72.0718" y1="115.8516" x2="76.4407" y2="110.6449">
				<stop  offset="0" style="stop-color:#000000;stop-opacity:0.3"/>
				<stop  offset="0.601" style="stop-color:#000000;stop-opacity:0"/>
			</linearGradient>
			<path fill="url(#SVGID_19_)" d="M70.977,114.933l5.521-0.619l1.492-2.37l-4.842-1.108
				C73.146,110.835,72.407,112.881,70.977,114.933z"/>
			<linearGradient id="SVGID_20_" gradientUnits="userSpaceOnUse" x1="219.2397" y1="135.9189" x2="221.2242" y2="147.1731">
				<stop  offset="0" style="stop-color:#000000;stop-opacity:0.3"/>
				<stop  offset="0.601" style="stop-color:#000000;stop-opacity:0"/>
			</linearGradient>
			<path fill="url(#SVGID_20_)" d="M223.635,135.144c0,0-1.148,5.359-1.114,7.963l-3.604,4.473l-2.703-3.113
				C216.214,144.466,223.09,136.296,223.635,135.144z"/>
			<linearGradient id="SVGID_21_" gradientUnits="userSpaceOnUse" x1="254.5161" y1="135.5986" x2="246.1934" y2="150.0141">
				<stop  offset="0" style="stop-color:#000000;stop-opacity:0.3"/>
				<stop  offset="0.601" style="stop-color:#000000;stop-opacity:0"/>
			</linearGradient>
			<path fill="url(#SVGID_21_)" d="M253.728,135.144l-2.667,11.682l-3.119,4.198l-0.895-7.73
				C247.047,143.293,252.744,136.39,253.728,135.144z"/>
			<linearGradient id="SVGID_22_" gradientUnits="userSpaceOnUse" x1="341.8325" y1="135.5605" x2="334.9351" y2="147.5073">
				<stop  offset="0" style="stop-color:#000000;stop-opacity:0.3"/>
				<stop  offset="0.601" style="stop-color:#000000;stop-opacity:0"/>
			</linearGradient>
			<path fill="url(#SVGID_22_)" d="M341.152,135.168c0,0-1.242,4.327-1.311,8.216l-3.756,4.788l-1.505-4.43
				C334.581,143.742,340.529,136.039,341.152,135.168z"/>
			
				<linearGradient id="SVGID_23_" gradientUnits="userSpaceOnUse" x1="719.4063" y1="90.8887" x2="743" y2="90.8887" gradientTransform="matrix(-0.9868 0.162 0.162 0.9868 723.832 -82.793)">
				<stop  offset="0" style="stop-color:#F9C9DE"/>
				<stop  offset="1" style="stop-color:#F173AC"/>
			</linearGradient>
			<path fill="url(#SVGID_23_)" d="M29.018,125.679c0,0-7.699,1.571-12.842,1.129s-9.353-1.846-11.188-1.861
				C4.988,124.946,28.337,125.793,29.018,125.679z"/>
			
				<linearGradient id="SVGID_24_" gradientUnits="userSpaceOnUse" x1="720.6445" y1="99.7427" x2="746.001" y2="99.7427" gradientTransform="matrix(-0.9868 0.162 0.162 0.9868 723.832 -82.793)">
				<stop  offset="0" style="stop-color:#F9C9DE"/>
				<stop  offset="1" style="stop-color:#F173AC"/>
			</linearGradient>
			<path fill="url(#SVGID_24_)" d="M28.63,130.968c0,0-11.363,4.864-16.477,5.548s-8.117,1.166-8.117,1.166L28.63,130.968z"/>
			
				<linearGradient id="SVGID_25_" gradientUnits="userSpaceOnUse" x1="720.917" y1="109.0527" x2="739.6953" y2="109.0527" gradientTransform="matrix(-0.9868 0.162 0.162 0.9868 723.832 -82.793)">
				<stop  offset="0" style="stop-color:#F9C9DE"/>
				<stop  offset="1" style="stop-color:#F173AC"/>
			</linearGradient>
			<path fill="url(#SVGID_25_)" d="M29.291,136.674c0,0-6.714,6.321-10.517,9.051c-3.803,2.731-6.4,3.815-6.4,3.815L29.291,136.674z
				"/>
			
				<linearGradient id="SVGID_26_" gradientUnits="userSpaceOnUse" x1="705.4697" y1="117.3652" x2="713.9082" y2="117.3652" gradientTransform="matrix(-0.9868 0.162 0.162 0.9868 723.832 -82.793)">
				<stop  offset="0" style="stop-color:#F9C9DE"/>
				<stop  offset="1" style="stop-color:#F173AC"/>
			</linearGradient>
			<path fill="url(#SVGID_26_)" d="M44.48,138.974c0,0,2.106,1.289,0.923,5.617c-1.185,4.329-3.781,8.679-3.649,11.395
				c0,0-0.658,1.244-1.48,0.922c-0.822-0.321-0.717-1.094-0.844-2.168c-0.126-1.074-0.212-2.645,1.803-5.946
				S45.974,140.566,44.48,138.974z"/>
			<linearGradient id="SVGID_27_" gradientUnits="userSpaceOnUse" x1="25.3926" y1="142.3838" x2="28.5993" y2="160.57">
				<stop  offset="0" style="stop-color:#000000;stop-opacity:0.3"/>
				<stop  offset="0.601" style="stop-color:#000000;stop-opacity:0"/>
			</linearGradient>
			<path fill="url(#SVGID_27_)" d="M37.796,140.197c0,0-10.375,5.612-12.271,6.642s-8.158,4.199-9.268,4.535
				c0,0-0.59,6.963-0.357,9.713c0,0,16.457,1.732,18.196-4.51C34.097,156.577,36.006,145.372,37.796,140.197z"/>
			<linearGradient id="SVGID_28_" gradientUnits="userSpaceOnUse" x1="22.9229" y1="137.3408" x2="23.8063" y2="139.7681">
				<stop  offset="0" style="stop-color:#000000;stop-opacity:0.3"/>
				<stop  offset="0.601" style="stop-color:#000000;stop-opacity:0"/>
			</linearGradient>
			<path fill="url(#SVGID_28_)" d="M17.969,141.893l11.322-5.219c0,0-9.648,2.226-10.521,2.178L17.969,141.893z"/>
			<linearGradient id="SVGID_29_" gradientUnits="userSpaceOnUse" x1="28.6299" y1="131.5947" x2="20.5669" y2="131.5947">
				<stop  offset="0" style="stop-color:#000000;stop-opacity:0.3"/>
				<stop  offset="0.601" style="stop-color:#000000;stop-opacity:0"/>
			</linearGradient>
			<path fill="url(#SVGID_29_)" d="M21.173,130.431c0,0,6.813,0.607,7.457,0.537l-6.289,1.791l-1.774-0.398
				C20.567,132.36,20.948,131.089,21.173,130.431z"/>
			<linearGradient id="SVGID_30_" gradientUnits="userSpaceOnUse" x1="29.0176" y1="124.8218" x2="23.8052" y2="124.8218">
				<stop  offset="0" style="stop-color:#000000;stop-opacity:0.3"/>
				<stop  offset="0.601" style="stop-color:#000000;stop-opacity:0"/>
			</linearGradient>
			<path fill="url(#SVGID_30_)" d="M25.226,124.059c0,0,2.942,1.308,3.792,1.62l-5.212-0.14
				C23.805,125.539,23.979,123.51,25.226,124.059z"/>
			<linearGradient id="SVGID_31_" gradientUnits="userSpaceOnUse" x1="34.5293" y1="122.6895" x2="39.8007" y2="108.2063">
				<stop  offset="0" style="stop-color:#000000;stop-opacity:0.3"/>
				<stop  offset="0.601" style="stop-color:#000000;stop-opacity:0"/>
			</linearGradient>
			<path fill="url(#SVGID_31_)" d="M25.4,119.367c0,0,12.102,2.881,19.72,0.924c0,0,1.765-3.896,2.709-5.741
				c0,0-6.953-10.543-17.316-5.816L25.4,119.367z"/>
			<linearGradient id="SVGID_32_" gradientUnits="userSpaceOnUse" x1="18.1045" y1="119.646" x2="46.9927" y2="119.646">
				<stop  offset="0" style="stop-color:#F9C9DE"/>
				<stop  offset="1" style="stop-color:#F173AC"/>
			</linearGradient>
			<path fill="url(#SVGID_32_)" d="M18.104,117.732c0,0,13.503,6.908,28.888,2.162c0,0-7.84,2.069-17.801,0.21
				S18.104,117.732,18.104,117.732z"/>
		</g>
		<linearGradient id="SVGID_33_" gradientUnits="userSpaceOnUse" x1="70.9766" y1="99.335" x2="85.064" y2="99.335">
			<stop  offset="0" style="stop-color:#F173AC"/>
			<stop  offset="0.5074" style="stop-color:#F9C9DE"/>
			<stop  offset="1" style="stop-color:#F173AC"/>
		</linearGradient>
		<path fill="url(#SVGID_33_)" d="M77.225,83.848c0,0,4.741-0.941,7.322,2.658c0,0,3.569,11.266-8.05,27.808l-5.521,0.619
			C70.977,114.933,80.322,100.173,77.225,83.848z"/>
		<linearGradient id="SVGID_34_" gradientUnits="userSpaceOnUse" x1="34.5103" y1="164.9189" x2="68.5781" y2="164.9189">
			<stop  offset="0" style="stop-color:#F173AC"/>
			<stop  offset="0.5074" style="stop-color:#F9C9DE"/>
			<stop  offset="1" style="stop-color:#F173AC"/>
		</linearGradient>
		<path fill="url(#SVGID_34_)" d="M34.51,175.518c0,0,3.118,3.671,10.118-0.412s23.95-22.302,23.95-22.302
			S44.226,176.596,34.51,175.518z"/>
	</g>
	<linearGradient id="SVGID_35_" gradientUnits="userSpaceOnUse" x1="108.3521" y1="161.6982" x2="111.8359" y2="161.6982">
		<stop  offset="0" style="stop-color:#000000"/>
		<stop  offset="1" style="stop-color:#F37021"/>
	</linearGradient>
	<path fill="url(#SVGID_35_)" d="M109.165,164.898c0.529,0.208,1.088-0.121,1.297-0.65c0.618-1.408,1.046-2.646,1.306-4.074
		c0.219-0.709-0.101-1.448-0.81-1.667c-0.889-0.229-1.627,0.091-1.856,0.979c-0.249,1.249-0.499,2.497-0.717,3.205
		C108.315,163.949,108.276,164.668,109.165,164.898z"/>
	<linearGradient id="SVGID_36_" gradientUnits="userSpaceOnUse" x1="1.8237" y1="159.9282" x2="406.9229" y2="159.9282">
		<stop  offset="0" style="stop-color:#000000"/>
		<stop  offset="0.7143" style="stop-color:#F173AC"/>
	</linearGradient>
	<path fill="url(#SVGID_36_)" d="M405.515,171.165c-1.037,1.366-2.771,3.243-5.407,5.08c-2.62,1.849-6.161,3.601-10.47,4.789
		c-4.298,1.21-9.332,1.878-14.835,1.936c-5.501,0.059-11.466-0.053-17.768-0.365c-6.304-0.269-12.945-0.689-19.813-1.147
		c-13.734-0.96-28.371-2.178-42.993-3.542c-7.317-0.668-14.607-1.41-21.811-2.146c-7.203-0.678-14.295-1.313-21.171-1.781
		c-3.438-0.24-6.817-0.494-10.133-0.645c-3.316-0.149-6.548-0.401-9.72-0.45c-3.165-0.073-6.251-0.207-9.226-0.223
		c-2.969,0.03-5.838,0.059-8.592,0.086c-2.801,0.136-5.421,0.323-7.948,0.471c-2.517,0.184-4.893,0.521-7.132,0.75
		c-4.466,0.591-8.338,1.302-11.499,2.035c-3.162,0.735-5.614,1.479-7.275,2.043c-0.835,0.28-1.48,0.55-1.913,0.706
		c-0.412,0.174-0.625,0.263-0.625,0.263l0.032,0.072c-2.618,0.855-5.215,1.848-7.53,3.009c-1.109,0.479-1.848,0.8-1.928-1.008
		c-0.111-1.269-0.571-2.735-1.041-4.022c-0.311-0.919-0.101-1.448,0.658-2.127c1.525-1.539,2.703-3.277,2.791-4.895
		c0.168-3.057-1.389-4.223-3.775-3.452c-0.738,0.319-1.477,0.64-2.056,1.33c-2.095,2.046-2.395,4.193-1.644,6.939
		c0.362,0.914,0.749,1.856,1.111,2.823c-0.063,0.036-0.128,0.073-0.191,0.111c-2.454,2.028-5.258,3.856-7.883,5.695
		c-4.302,2.828-8.763,5.286-13.874,6.448c-4.563,1.011-11.453-1.531-11.966-8.59c-0.091-1.628,0.178-3.234,0.257-4.673
		c0.03-0.539,0.049-0.897,0.608-1.229c3.164-1.809,5.659-4.556,8.153-7.303c9.389-10.12,16.86-21.427,21.187-34.527
		c1.266-3.356,1.982-6.562,1.452-10.016c-0.493-4.173-3.979-6.347-7.86-4.578c-1.288,0.47-2.227,1.14-3.175,1.989
		c-2.644,2.198-4.43,5.163-6.205,7.95c-4.938,7.84-7.938,16.509-11.107,24.986c-2.762,7.601-5.333,15.03-5.888,21.85
		c-0.003,0.035-0.004,0.068-0.008,0.104c-4.005,1.932-7.892,4.518-12.699,4.787c-3.444,0.351-6.639-0.546-5.644-5.539
		c0.02-0.359,0.04-0.719,0.069-1.258c0.04-0.719,0.269-1.607-0.8-1.847c-1.069-0.238-1.467,0.461-1.697,1.35
		c-0.297,0.807-0.545,1.638-0.677,2.475c-3.756,2.137-7.641,3.704-11.809,4.951c-4.222,1.39-8.416,2.24-12.909,1.994
		c-6.101-0.516-9.468-4.848-8.233-10.908c0.488-2.317,1.335-4.614,2.173-6.731c0.219-0.709,0.448-1.597-0.42-2.185
		c-0.879-0.41-1.448,0.1-2.027,0.788c-1.347,1.55-2.694,3.098-4.041,4.646c-0.939-2.576-2.468-4.282-5.145-4.79
		c-2.137-0.479-4.313-0.236-6.17,0.742c-3.143,1.854-5.471,4.247-6.986,7.221c-0.081,0.044-0.167,0.088-0.268,0.132
		c-4.991,2.25-10.171,4.669-15.792,5.262c-4.712,0.461-6.761-1.634-6.514-6.127c0.03-0.539,0.059-1.078,0.089-1.617
		c0.128-2.336,0.976-4.634,0.385-7.009c-0.411-2.367-1.799-3.345-4.005-2.564c-1.647,0.451-3.145,1.45-4.641,2.448
		c-4.112,2.658-7.555,6.255-11.167,9.661c-0.768,0.86-1.716,1.709-3.193,2.349c0.317-2.507,0.976-4.633,1.104-6.97
		c0.04-0.719-0.101-1.447-0.979-1.856c-0.889-0.229-1.467,0.46-1.867,1.16c-0.827,1.937-1.465,3.704-1.574,5.682
		c-0.099,1.797-0.197,3.595,1.73,4.601c1.748,0.998,3.104-0.729,4.242-1.749c3.244-3.246,6.496-6.673,10.079-9.541
		c1.697-1.349,3.214-2.708,5.24-3.497c1.837-0.62,2.366-0.41,2.068,1.736c-0.308,2.327-0.806,4.822-0.754,7.168
		c-0.058,4.324,1.951,7.138,5.686,8.064c1.428,0.259,2.687,0.328,4.144,0.047c5.465-0.657,10.311-2.905,15.079-5.21
		c-0.42,1.197-0.743,2.465-0.942,3.824c-0.318,2.507,0.282,4.704,2.729,6.1c2.277,1.207,4.474,0.605,6.36-0.912
		c2.065-1.51,3.961-3.207,5.688-5.096c2.105-2.228,4.221-4.636,6.526-7.212c-0.05,0.898-0.069,1.258-0.279,1.787
		c-1.095,6.789,3.292,12.258,10.111,12.813c3.055,0.168,6.121,0.156,9.225-0.574c6.138-1.26,11.765-3.543,17.001-6.707
		c0.109,0.902,0.43,1.795,1.068,2.652c1.689,2.075,4.185,2.574,6.542,2.342c5.177-0.544,9.39-2.976,13.782-5.121
		c-0.259,7.141,2.37,11.573,7.737,13.696c3.355,1.266,6.79,1.094,10.104-0.166c7.255-2.622,13.381-7.063,19.339-11.882
		c0.341,1.06,0.624,2.144,0.783,3.254c0.119,1.088-0.099,1.797-1.207,2.276c-2.775,1.29-5.211,2.959-7.654,4.807
		c-2.446,1.85-4.891,3.697-5.958,6.704c-0.867,2.655,0.633,4.901,3.508,5.06c1.259,0.069,2.347-0.052,3.644-0.702
		c5.171-2.238,8.992-6.174,9.857-12.076c0.558-3.574,2.274-5.282,5.389-6.192c1.807-0.411,3.531-1.009,5.235-1.659l0.026,0.061
		c0,0,0.209-0.091,0.615-0.266c0.403-0.147,0.975-0.393,1.77-0.667c0.032-0.012,0.07-0.023,0.103-0.035
		c0.199-0.039,0.397-0.093,0.563-0.192c1.563-0.522,3.709-1.17,6.397-1.819c3.093-0.745,6.896-1.479,11.298-2.098
		c2.21-0.245,4.552-0.6,7.04-0.802c2.485-0.169,5.099-0.347,7.826-0.531c2.754-0.051,5.622-0.104,8.591-0.159
		c2.964-0.01,6.015,0.099,9.16,0.144c3.141,0.021,6.38,0.246,9.684,0.367c3.308,0.121,6.682,0.346,10.115,0.557
		c6.866,0.408,13.954,0.983,21.152,1.599c7.187,0.672,14.517,1.355,21.833,1.96c14.64,1.24,29.291,2.334,43.04,3.178
		c6.875,0.399,13.523,0.764,19.835,0.979c6.308,0.259,12.282,0.32,17.795,0.214c5.513-0.104,10.566-0.818,14.877-2.07
		c4.317-1.23,7.856-3.021,10.469-4.896c2.628-1.865,4.349-3.761,5.375-5.137c1.031-1.384,1.391-2.239,1.391-2.239
		S406.556,169.792,405.515,171.165z M133.663,161.918c3.01-8.848,6.02-17.695,9.919-26.313c1.835-3.865,4.019-7.531,6.732-10.987
		c0.978-1.389,2.305-2.577,3.793-3.396c2.773-1.29,5.051-0.083,5.432,2.822c0.391,2.726-0.115,5.4-0.974,7.879
		c-4.126,12.751-11.049,23.907-20.058,33.688c-2.305,2.578-4.6,4.975-7.624,7.513C131.65,169.019,132.567,165.463,133.663,161.918z
		 M65.906,171.353c-3.252,3.426-6.335,7.043-10.447,9.701c-0.758,0.679-1.857,0.979-2.726,0.391
		c-1.049-0.599-1.359-1.518-1.299-2.596c0.077-4.683,4.546-10.564,8.958-12.125c0.549-0.15,1.278-0.291,1.827-0.44
		c1.607,0.269,2.846,0.697,3.686,1.824C66.744,169.235,66.685,170.314,65.906,171.353z M155.05,199.147
		c-0.929,0.489-2.196,0.6-2.866-0.339c-0.849-0.948-0.431-2.006,0.168-3.055c0.409-0.88,0.988-1.569,1.747-2.248
		c3.232-3.067,6.954-5.206,10.858-7.335C164.641,191.923,160.371,197.456,155.05,199.147z M165.328,172.852
		c0.02-0.359-0.141-0.729-0.131-0.908c0.259-1.428,0.857-2.477,1.986-3.314c0.197-0.351,0.568-0.51,0.918-0.312
		c0.529,0.209,0.499,0.748,0.479,1.109c-0.438,1.416-1.057,2.825-2.015,3.854C165.987,173.97,165.448,173.94,165.328,172.852z"/>
	<polygon points="420.204,140.343 411.003,156.121 416.002,159.036 425.203,143.259 432.837,147.711 450.972,109.668 
		436.092,100.989 412.665,136.067 	"/>
	
		<linearGradient id="SVGID_37_" gradientUnits="userSpaceOnUse" x1="392.0996" y1="167.6309" x2="416.3208" y2="167.6309" gradientTransform="matrix(0.9999 0.0129 -0.0129 0.9999 4.415 -8.9209)">
		<stop  offset="0" style="stop-color:#F173AC"/>
		<stop  offset="0.2512" style="stop-color:#F173AC"/>
		<stop  offset="1" style="stop-color:#000000"/>
	</linearGradient>
	<path fill="url(#SVGID_37_)" d="M394.357,170.272c0,0,8.026,0.011,14.196-9.552c1.033-1.602,2.015-3.473,2.897-5.657
		c0,0,1.26-1.871,2.348-0.512c0,0,3.778-4.743,4.732-3.897c0.954,0.847-2.481,8.972-3.562,10.078l-0.287-0.168
		c0,0-9.66,13.299-16.327,16.791C398.355,177.355,393.286,175.581,394.357,170.272z"/>
	<linearGradient id="SVGID_38_" gradientUnits="userSpaceOnUse" x1="412.665" y1="118.5283" x2="446.9189" y2="118.5283">
		<stop  offset="0" style="stop-color:#000000"/>
		<stop  offset="1" style="stop-color:#FFFFFF"/>
	</linearGradient>
	<path fill="url(#SVGID_38_)" d="M412.665,136.067c0,0,23.416-32.48,34.254-28.763l-10.827-6.315L412.665,136.067z"/>
	<linearGradient id="SVGID_39_" gradientUnits="userSpaceOnUse" x1="412.665" y1="120.8364" x2="450.9717" y2="120.8364">
		<stop  offset="0" style="stop-color:#FFFFFF"/>
		<stop  offset="1" style="stop-color:#000000"/>
	</linearGradient>
	<path fill="url(#SVGID_39_)" d="M412.665,136.067c0,0,21.521-29.004,38.307-26.399l-6.715-4.063
		C444.257,105.605,425.573,115.529,412.665,136.067z"/>
	<linearGradient id="SVGID_40_" gradientUnits="userSpaceOnUse" x1="394.3574" y1="163.126" x2="411.2842" y2="163.126">
		<stop  offset="0" style="stop-color:#F9C5DC;stop-opacity:0.6"/>
		<stop  offset="1" style="stop-color:#F173AC;stop-opacity:0.6"/>
	</linearGradient>
	<path fill="url(#SVGID_40_)" d="M394.357,170.272c0,0,2.273,0.875,4.69,0.333s11.329-2.963,12.236-15.136
		C411.284,155.47,404.668,169.605,394.357,170.272z"/>
</g>
</svg>
